<svg width="26" height="26" viewBox="0 0 26 26" fill="none" xmlns="http://www.w3.org/2000/svg">
<path d="M4.64321 3.71438H19.5003V11.1429H21.3574V1.85706H2.78589V24.1429H13.0003V22.2856H4.64321V3.71438Z" fill="#2E2E2E"/>
<path d="M18.1071 12.2261L13 14.7799V17.0203C13 19.8207 14.5821 22.3805 17.0866 23.6328L18.1071 24.1429L19.1275 23.6328C21.6321 22.3805 23.2141 19.8207 23.2141 17.0203V14.7799L18.1071 12.2261ZM21.3571 17.0201C21.3571 19.1305 20.1845 21.0277 18.297 21.9715L18.1071 22.0665L17.9171 21.9715C16.0296 21.0277 14.8571 19.1303 14.8571 17.0201V15.9275L18.1071 14.3025L21.3571 15.9275V17.0201Z" fill="#2E2E2E"/>
<path d="M16.7037 17.3471L15.7813 18.3909L18.149 20.4839L21.0417 17.1554L19.9908 16.2414L18.0195 18.5098L16.7037 17.3471ZM6.5 6.5H17.6429V8.35707H6.5V6.5ZM6.5 11.1429H13.9285V13H6.5V11.1429ZM6.5 15.7856H10.2144V17.6427H6.5V15.7856Z" fill="#2E2E2E"/>
</svg>
