<svg width="23" height="23" viewBox="0 0 23 23" fill="none" xmlns="http://www.w3.org/2000/svg">
<path fill-rule="evenodd" clip-rule="evenodd" d="M12.4972 2C7.26006 2 3 6.26125 3 11.4999C3 13.5775 3.67 15.5043 4.80896 17.0682L3.62525 20.5978L7.27676 19.4307C8.77861 20.4249 10.5709 21 12.5028 21C17.7399 21 22 16.7386 22 11.5001C22 6.26142 17.7399 2.00016 12.5028 2.00016L12.4972 2ZM9.84509 6.82554C9.66088 6.38436 9.52127 6.36765 9.2422 6.35631C9.14718 6.35079 9.04129 6.34528 8.9239 6.34528C8.56084 6.34528 8.18125 6.45135 7.95229 6.68589C7.67322 6.97071 6.98083 7.63523 6.98083 8.99802C6.98083 10.3608 7.97466 11.6788 8.1086 11.8632C8.24822 12.0473 10.0461 14.8845 12.8378 16.0408C15.0208 16.9455 15.6686 16.8617 16.1654 16.7556C16.8912 16.5992 17.8014 16.0629 18.0304 15.4152C18.2593 14.7672 18.2593 14.2143 18.1922 14.097C18.1252 13.9798 17.9408 13.9129 17.6618 13.7731C17.3827 13.6335 16.0258 12.9633 15.769 12.8739C15.5177 12.779 15.2777 12.8126 15.0879 13.0807C14.8199 13.4549 14.5576 13.8348 14.3453 14.0636C14.1778 14.2424 13.9041 14.2647 13.6753 14.1697C13.3682 14.0414 12.5084 13.7395 11.4475 12.7957C10.6267 12.0642 10.0684 11.1539 9.90655 10.8803C9.74456 10.6012 9.88983 10.439 10.0181 10.2883C10.1577 10.1151 10.2917 9.99228 10.4313 9.83025C10.5709 9.66837 10.649 9.58452 10.7384 9.39459C10.8334 9.21033 10.7663 9.0204 10.6993 8.88074C10.6323 8.74109 10.074 7.37831 9.84509 6.82554Z" fill="#67C15E"/>
</svg>
