<svg width="26" height="26" viewBox="0 0 26 26" fill="none" xmlns="http://www.w3.org/2000/svg">
<path d="M18.5669 13.8986V15.7503H12.0621V17.1364C12.0621 17.6414 12.1872 18.1142 12.3931 18.5415H11.4159L6.47154 15.2915C5.73928 14.8096 4.8049 14.7692 4.03227 15.1854C3.65375 15.3892 3.33752 15.6918 3.11716 16.0609C2.89681 16.4301 2.78056 16.852 2.78076 17.2819C2.78076 18.0957 3.1893 18.8444 3.87357 19.2847L9.9366 23.189H18.5669V24.1176H23.2096V13.8986H18.5669ZM10.4825 21.3317L4.87879 17.7232C4.80484 17.6758 4.74402 17.6105 4.70195 17.5334C4.65988 17.4562 4.63792 17.3698 4.63809 17.2819C4.63809 16.9996 4.8308 16.8647 4.91383 16.8198C4.99736 16.7759 5.21547 16.6883 5.4516 16.8429L10.8603 20.3986H16.7179V18.5415H16.6999V18.5405H15.3237C14.7149 18.5405 14.1949 18.1505 14.0006 17.6074H18.5671V21.3317H10.4825ZM21.3525 22.2602H20.4239V15.7557H21.3525V22.2602ZM5.89492 12.7375C5.37543 11.831 5.10096 10.7956 5.10096 9.74266C5.10096 6.41471 7.80785 3.70706 11.1348 3.70706C14.4625 3.70706 17.1691 6.41471 17.1691 9.74266C17.1691 10.7946 16.8949 11.83 16.3757 12.7365L17.987 13.6597C18.6672 12.4722 19.0262 11.1178 19.0262 9.74266C19.0262 5.39045 15.486 1.84973 11.1348 1.84973C6.78359 1.84973 3.24389 5.39045 3.24389 9.74266C3.24389 11.1188 3.60342 12.4734 4.28363 13.6604L5.89492 12.7375Z" fill="#2E2E2E"/>
<path d="M8.53689 8.90981L7.29834 10.2931L10.77 13.4027L15.0955 8.42688L13.6935 7.20813L10.605 10.7621L8.53689 8.90981Z" fill="#2E2E2E"/>
</svg>
