<svg width="23" height="23" viewBox="0 0 23 23" fill="none" xmlns="http://www.w3.org/2000/svg">
<path fill-rule="evenodd" clip-rule="evenodd" d="M21.0837 11.5C21.0837 16.7927 16.793 21.0833 11.5003 21.0833C6.20759 21.0833 1.91699 16.7927 1.91699 11.5C1.91699 6.20727 6.20759 1.91666 11.5003 1.91666C16.793 1.91666 21.0837 6.20727 21.0837 11.5ZM11.8437 8.9915C10.9116 9.37921 9.04869 10.1816 6.25495 11.3988C5.80129 11.5793 5.56364 11.7558 5.54201 11.9283C5.50545 12.22 5.87068 12.3348 6.36802 12.4912C6.43568 12.5125 6.50577 12.5345 6.57763 12.5578C7.06693 12.7169 7.72514 12.903 8.06732 12.9104C8.3777 12.9171 8.72413 12.7891 9.10659 12.5265C11.7169 10.7645 13.0643 9.8739 13.1488 9.85463C13.2086 9.84112 13.2913 9.82406 13.3473 9.8739C13.4034 9.92373 13.3978 10.018 13.3919 10.0433C13.3558 10.1976 11.9221 11.5305 11.1801 12.2202C10.9489 12.4352 10.7848 12.5877 10.7513 12.6226C10.6762 12.7006 10.5996 12.7744 10.526 12.8453C10.0715 13.2836 9.73048 13.6122 10.5449 14.1488C10.9363 14.4067 11.2493 14.6199 11.5618 14.8327C11.9029 15.0651 12.2432 15.2968 12.6836 15.5855C12.7957 15.659 12.9028 15.7354 13.0072 15.8097C13.4042 16.0928 13.7609 16.3472 14.2017 16.3065C14.4577 16.283 14.7222 16.0422 14.8566 15.324C15.1741 13.6268 15.7982 9.94941 15.9424 8.43411C15.955 8.30135 15.9391 8.13144 15.9264 8.05685C15.9135 7.98226 15.8869 7.87598 15.7899 7.79731C15.6751 7.70414 15.4979 7.6845 15.4186 7.68583C15.0581 7.69225 14.5051 7.88454 11.8437 8.9915Z" fill="#1E9FE0"/>
</svg>
