<svg width="24" height="24" viewBox="0 0 24 24" fill="none" xmlns="http://www.w3.org/2000/svg">
<path d="M12 4C8.68286 4 6 6.504 6 9.6C6 13.8 12 20 12 20C12 20 18 13.8 18 9.6C18 6.504 15.3171 4 12 4ZM12 11.6C11.4317 11.6 10.8866 11.3893 10.4848 11.0142C10.0829 10.6391 9.85714 10.1304 9.85714 9.6C9.85714 9.06957 10.0829 8.56086 10.4848 8.18579C10.8866 7.81071 11.4317 7.6 12 7.6C12.5683 7.6 13.1134 7.81071 13.5152 8.18579C13.9171 8.56086 14.1429 9.06957 14.1429 9.6C14.1429 10.1304 13.9171 10.6391 13.5152 11.0142C13.1134 11.3893 12.5683 11.6 12 11.6Z" fill="black"/>
</svg>
