<svg width="184" height="40" viewBox="0 0 184 40" fill="none" xmlns="http://www.w3.org/2000/svg">
<path d="M13.0044 34.8936H1V11.7872L16.1395 2L31.3203 11.7872V34.8936H19.1922M13.1281 28.6809H6.65154V15.0502L16.1678 9.2766L25.71 15.0502V28.6809H16.1808V40" stroke="#2E2E2E" stroke-width="2"/>
<path d="M12.5918 21.5745H15.5619V24.6383H12.5918V21.5745Z" fill="url(#paint0_linear_37_22)"/>
<path d="M12.5918 17.4043H15.5619V20.4681H12.5918V17.4043Z" fill="url(#paint1_linear_37_22)"/>
<path d="M16.6345 21.5745H19.6047V24.6383H16.6345V21.5745Z" fill="url(#paint2_linear_37_22)"/>
<path d="M16.6345 17.4043H19.6047V20.4681H16.6345V17.4043Z" fill="url(#paint3_linear_37_22)"/>
<path d="M40.2383 28.9241V28.4867C40.4547 27.572 40.5629 26.2596 40.5629 24.5495V19.3993C40.5629 17.5566 40.4547 16.2376 40.2383 15.4422V15.0047H43.7689V15.4422C43.6742 15.7471 43.5931 16.3701 43.5254 17.3114C43.4713 18.2526 43.4443 18.9684 43.4443 19.4589V24.7682C43.4443 25.7359 43.4849 26.6175 43.566 27.4129C43.823 27.4394 44.3574 27.4526 45.169 27.4526C47.3063 27.4526 48.889 27.2405 49.9171 26.8163H50.3027L49.9374 28.9241H40.2383Z" fill="url(#paint4_linear_37_22)"/>
<path d="M63.6133 19.1607V22.72C63.6133 25.1327 63.1601 26.8097 62.2538 27.7509C61.361 28.6789 59.8527 29.1429 57.7289 29.1429C55.6051 29.1429 54.0697 28.6921 53.1228 27.7907C52.1759 26.876 51.7024 25.4178 51.7024 23.416V19.4788C51.7024 17.5036 51.5942 16.158 51.3778 15.4422V15.0047H54.8678V15.4422C54.6785 16.6353 54.5838 18.1797 54.5838 20.0754V22.5212C54.5838 23.8601 54.6649 24.8146 54.8273 25.3846C55.0031 25.9547 55.2128 26.3656 55.4563 26.6175C56.0109 27.214 56.8564 27.5123 57.9927 27.5123C59.1425 27.5123 59.9947 27.34 60.5493 26.9953C60.9011 26.4783 61.1243 25.7691 61.219 24.8676C61.3136 23.9662 61.361 22.4417 61.361 20.2941C61.361 18.1333 61.2528 16.516 61.0363 15.4422V15.0047H63.938V15.4223C63.8433 15.7272 63.7621 16.3105 63.6945 17.1722C63.6404 18.0206 63.6133 18.6834 63.6133 19.1607Z" fill="url(#paint5_linear_37_22)"/>
<path d="M67.0132 28.4867C67.5272 25.4774 67.7842 21.9777 67.7842 17.9874C67.7842 16.9269 67.7572 16.0719 67.7031 15.4223V14.9848L71.0511 14.7263C71.1864 15.3626 71.4704 16.3503 71.9033 17.6892C72.3497 19.0281 73.4116 21.8053 75.089 26.0209C76.1983 23.0117 77.0437 20.5725 77.6254 18.7033C78.2071 16.8341 78.552 15.6079 78.6603 15.0246L82.13 14.6667V15.1041C82.1165 15.3825 82.1097 15.9459 82.1097 16.7944C82.1097 17.6295 82.1841 19.1673 82.3329 21.4076C82.4953 23.6347 82.7591 25.9944 83.1243 28.4867V28.9241H79.7763V28.4867C79.8168 27.7045 79.8371 26.823 79.8371 25.842C79.8371 23.3762 79.7154 21.0563 79.4719 18.8823C77.808 23.4425 76.665 26.7766 76.0427 28.8844L73.5875 29.123C73.5875 28.4999 72.3768 25.0532 69.9554 18.7828C69.8066 21.116 69.7322 23.0581 69.7322 24.6091C69.7322 26.1469 69.7525 27.4394 69.793 28.4867V28.9241H67.0132V28.4867Z" fill="url(#paint6_linear_37_22)"/>
<path d="M91.3316 16.4165C90.7769 16.4165 90.3441 16.4298 90.0329 16.4563C90.0059 17.0661 89.9924 18.5575 89.9924 20.9304L95.2072 20.831L94.497 22.4814H94.1114C93.5974 22.3754 92.8399 22.3223 91.8388 22.3223C90.8513 22.3223 90.2358 22.3356 89.9924 22.3621V23.416C89.9924 25.6431 90.0126 26.9754 90.0532 27.4129C90.3644 27.4394 90.8784 27.4526 91.5953 27.4526C92.3258 27.4526 93.1983 27.393 94.2129 27.2737C95.2275 27.1544 95.9715 27.0019 96.4449 26.8163H96.8304L96.4449 28.9241H86.7255V28.4867C86.9555 27.5322 87.0704 26.1999 87.0704 24.4898V19.4589C87.0704 17.7356 86.9555 16.3967 86.7255 15.4422V15.0047L96.1608 14.9451L95.5521 16.6949H95.1666C94.5037 16.5093 93.2254 16.4165 91.3316 16.4165Z" fill="url(#paint7_linear_37_22)"/>
<path d="M101.635 28.9241H98.8553V28.4867C99.0717 27.6913 99.1799 26.1866 99.1799 23.9728V19.9362C99.1799 17.9609 99.092 16.4696 98.9162 15.4621V15.0246L102.122 14.8059L109.265 24.629V19.3993C109.265 18.7232 109.217 17.9808 109.123 17.1722C109.028 16.3503 108.92 15.7736 108.798 15.4422V15.0047H111.659V15.4422C111.578 15.7736 111.503 16.4232 111.436 17.3909C111.368 18.3454 111.334 19.2004 111.334 19.956V24.6886C111.334 25.4575 111.375 26.2993 111.456 27.214C111.537 28.1287 111.605 28.6855 111.659 28.8844L109.001 29.1429L101.25 18.5045V24.5495C101.25 26.2198 101.378 27.5322 101.635 28.4867V28.9241Z" fill="url(#paint8_linear_37_22)"/>
<mask id="path-4-outside-1_37_22" maskUnits="userSpaceOnUse" x="119" y="14" width="65" height="16" fill="black">
<rect fill="white" x="119" y="14" width="65" height="16"/>
<path d="M127.139 23.0223V22.0097H133.189C133.189 22.9314 133.047 23.8141 132.761 24.6579C132.476 25.4886 132.054 26.2286 131.497 26.8776C130.939 27.5267 130.265 28.0394 129.474 28.4159C128.683 28.7923 127.788 28.9805 126.789 28.9805C125.816 28.9805 124.915 28.8118 124.085 28.4743C123.268 28.1238 122.548 27.637 121.926 27.0139C121.316 26.3908 120.843 25.6509 120.506 24.7942C120.169 23.9374 120 23.0028 120 21.9903C120 20.9777 120.169 20.0431 120.506 19.1864C120.843 18.3296 121.316 17.5897 121.926 16.9666C122.548 16.3435 123.268 15.8632 124.085 15.5257C124.915 15.1752 125.816 15 126.789 15C127.632 15 128.397 15.1168 129.085 15.3505C129.785 15.5841 130.407 15.9217 130.952 16.363C131.497 16.7914 131.964 17.3106 132.353 17.9207L131.575 18.6022C131.121 17.8493 130.485 17.2392 129.668 16.7719C128.851 16.3046 127.892 16.0709 126.789 16.0709C125.726 16.0709 124.766 16.3241 123.91 16.8303C123.054 17.3366 122.373 18.0311 121.868 18.9138C121.375 19.7965 121.128 20.822 121.128 21.9903C121.128 23.1456 121.375 24.1711 121.868 25.0668C122.373 25.9495 123.048 26.6439 123.891 27.1502C124.747 27.6565 125.713 27.9096 126.789 27.9096C127.554 27.9096 128.242 27.7798 128.851 27.5202C129.461 27.2605 129.986 26.9036 130.427 26.4492C130.881 25.9949 131.244 25.4757 131.516 24.8915C131.789 24.3074 131.957 23.6843 132.022 23.0223H127.139Z"/>
<path d="M138.684 22.3018H139.871L144.52 28.8053H143.198L138.684 22.3018ZM136.37 15.1752H137.439V28.8053H136.37V15.1752ZM136.934 16.1293V15.1752H139.482C140.364 15.1752 141.149 15.331 141.836 15.6426C142.536 15.9541 143.087 16.4019 143.489 16.9861C143.891 17.5702 144.092 18.2842 144.092 19.128C144.092 19.9587 143.891 20.6727 143.489 21.2698C143.087 21.8669 142.536 22.3213 141.836 22.6328C141.149 22.9314 140.364 23.0807 139.482 23.0807H136.934V22.1266H139.482C140.169 22.1266 140.779 22.0162 141.311 21.7955C141.855 21.5619 142.277 21.2244 142.575 20.783C142.873 20.3287 143.023 19.777 143.023 19.128C143.023 18.4789 142.867 17.9337 142.556 17.4924C142.257 17.051 141.842 16.7135 141.311 16.4798C140.779 16.2462 140.169 16.1293 139.482 16.1293H136.934Z"/>
<path d="M147.486 21.9903C147.486 23.1196 147.726 24.1321 148.206 25.0278C148.698 25.9235 149.366 26.631 150.209 27.1502C151.065 27.6565 152.038 27.9096 153.127 27.9096C154.217 27.9096 155.183 27.6565 156.026 27.1502C156.882 26.631 157.55 25.9235 158.029 25.0278C158.509 24.1321 158.749 23.1196 158.749 21.9903C158.749 20.8479 158.509 19.8354 158.029 18.9527C157.55 18.057 156.882 17.3561 156.026 16.8498C155.183 16.3306 154.217 16.0709 153.127 16.0709C152.038 16.0709 151.065 16.3306 150.209 16.8498C149.366 17.3561 148.698 18.057 148.206 18.9527C147.726 19.8354 147.486 20.8479 147.486 21.9903ZM146.358 21.9903C146.358 20.9907 146.526 20.0691 146.863 19.2253C147.2 18.3686 147.674 17.6287 148.283 17.0056C148.893 16.3695 149.606 15.8762 150.423 15.5257C151.253 15.1752 152.155 15 153.127 15C154.1 15 154.995 15.1752 155.812 15.5257C156.642 15.8762 157.362 16.3695 157.971 17.0056C158.581 17.6287 159.054 18.3686 159.391 19.2253C159.728 20.0691 159.897 20.9907 159.897 21.9903C159.897 22.9898 159.728 23.9179 159.391 24.7747C159.054 25.6185 158.581 26.3584 157.971 26.9944C157.362 27.6175 156.642 28.1043 155.812 28.4548C154.995 28.8053 154.1 28.9805 153.127 28.9805C152.155 28.9805 151.253 28.8053 150.423 28.4548C149.606 28.1043 148.893 27.6175 148.283 26.9944C147.674 26.3584 147.2 25.6185 146.863 24.7747C146.526 23.9179 146.358 22.9898 146.358 21.9903Z"/>
<path d="M162.877 15.1752H163.947V24.4047C163.947 25.4951 164.232 26.3649 164.803 27.0139C165.373 27.663 166.184 27.9875 167.234 27.9875C168.285 27.9875 169.095 27.663 169.666 27.0139C170.237 26.3649 170.522 25.4951 170.522 24.4047V15.1752H171.592V24.4047C171.592 25.0797 171.495 25.7028 171.3 26.274C171.105 26.8322 170.82 27.3125 170.444 27.7149C170.068 28.1173 169.608 28.4353 169.063 28.669C168.531 28.8897 167.922 29 167.234 29C166.547 29 165.931 28.8897 165.386 28.669C164.854 28.4353 164.401 28.1173 164.024 27.7149C163.648 27.3125 163.363 26.8322 163.169 26.274C162.974 25.7028 162.877 25.0797 162.877 24.4047V15.1752Z"/>
<path d="M175.355 15.1752H176.425V28.8053H175.355V15.1752ZM175.958 16.1878V15.1752H178.545C179.401 15.1752 180.16 15.3375 180.821 15.662C181.496 15.9866 182.027 16.4474 182.416 17.0445C182.805 17.6416 183 18.3621 183 19.2058C183 20.0366 182.805 20.7571 182.416 21.3672C182.027 21.9773 181.496 22.4446 180.821 22.7691C180.16 23.0807 179.401 23.2364 178.545 23.2364H175.958V22.2239H178.545C179.544 22.2239 180.354 21.9643 180.977 21.4451C181.599 20.9258 181.911 20.1794 181.911 19.2058C181.911 18.2193 181.599 17.4729 180.977 16.9666C180.354 16.4474 179.544 16.1878 178.545 16.1878H175.958Z"/>
</mask>
<path d="M127.139 23.0223V22.0097H133.189C133.189 22.9314 133.047 23.8141 132.761 24.6579C132.476 25.4886 132.054 26.2286 131.497 26.8776C130.939 27.5267 130.265 28.0394 129.474 28.4159C128.683 28.7923 127.788 28.9805 126.789 28.9805C125.816 28.9805 124.915 28.8118 124.085 28.4743C123.268 28.1238 122.548 27.637 121.926 27.0139C121.316 26.3908 120.843 25.6509 120.506 24.7942C120.169 23.9374 120 23.0028 120 21.9903C120 20.9777 120.169 20.0431 120.506 19.1864C120.843 18.3296 121.316 17.5897 121.926 16.9666C122.548 16.3435 123.268 15.8632 124.085 15.5257C124.915 15.1752 125.816 15 126.789 15C127.632 15 128.397 15.1168 129.085 15.3505C129.785 15.5841 130.407 15.9217 130.952 16.363C131.497 16.7914 131.964 17.3106 132.353 17.9207L131.575 18.6022C131.121 17.8493 130.485 17.2392 129.668 16.7719C128.851 16.3046 127.892 16.0709 126.789 16.0709C125.726 16.0709 124.766 16.3241 123.91 16.8303C123.054 17.3366 122.373 18.0311 121.868 18.9138C121.375 19.7965 121.128 20.822 121.128 21.9903C121.128 23.1456 121.375 24.1711 121.868 25.0668C122.373 25.9495 123.048 26.6439 123.891 27.1502C124.747 27.6565 125.713 27.9096 126.789 27.9096C127.554 27.9096 128.242 27.7798 128.851 27.5202C129.461 27.2605 129.986 26.9036 130.427 26.4492C130.881 25.9949 131.244 25.4757 131.516 24.8915C131.789 24.3074 131.957 23.6843 132.022 23.0223H127.139Z" fill="#2E2E2E"/>
<path d="M138.684 22.3018H139.871L144.52 28.8053H143.198L138.684 22.3018ZM136.37 15.1752H137.439V28.8053H136.37V15.1752ZM136.934 16.1293V15.1752H139.482C140.364 15.1752 141.149 15.331 141.836 15.6426C142.536 15.9541 143.087 16.4019 143.489 16.9861C143.891 17.5702 144.092 18.2842 144.092 19.128C144.092 19.9587 143.891 20.6727 143.489 21.2698C143.087 21.8669 142.536 22.3213 141.836 22.6328C141.149 22.9314 140.364 23.0807 139.482 23.0807H136.934V22.1266H139.482C140.169 22.1266 140.779 22.0162 141.311 21.7955C141.855 21.5619 142.277 21.2244 142.575 20.783C142.873 20.3287 143.023 19.777 143.023 19.128C143.023 18.4789 142.867 17.9337 142.556 17.4924C142.257 17.051 141.842 16.7135 141.311 16.4798C140.779 16.2462 140.169 16.1293 139.482 16.1293H136.934Z" fill="#2E2E2E"/>
<path d="M147.486 21.9903C147.486 23.1196 147.726 24.1321 148.206 25.0278C148.698 25.9235 149.366 26.631 150.209 27.1502C151.065 27.6565 152.038 27.9096 153.127 27.9096C154.217 27.9096 155.183 27.6565 156.026 27.1502C156.882 26.631 157.55 25.9235 158.029 25.0278C158.509 24.1321 158.749 23.1196 158.749 21.9903C158.749 20.8479 158.509 19.8354 158.029 18.9527C157.55 18.057 156.882 17.3561 156.026 16.8498C155.183 16.3306 154.217 16.0709 153.127 16.0709C152.038 16.0709 151.065 16.3306 150.209 16.8498C149.366 17.3561 148.698 18.057 148.206 18.9527C147.726 19.8354 147.486 20.8479 147.486 21.9903ZM146.358 21.9903C146.358 20.9907 146.526 20.0691 146.863 19.2253C147.2 18.3686 147.674 17.6287 148.283 17.0056C148.893 16.3695 149.606 15.8762 150.423 15.5257C151.253 15.1752 152.155 15 153.127 15C154.1 15 154.995 15.1752 155.812 15.5257C156.642 15.8762 157.362 16.3695 157.971 17.0056C158.581 17.6287 159.054 18.3686 159.391 19.2253C159.728 20.0691 159.897 20.9907 159.897 21.9903C159.897 22.9898 159.728 23.9179 159.391 24.7747C159.054 25.6185 158.581 26.3584 157.971 26.9944C157.362 27.6175 156.642 28.1043 155.812 28.4548C154.995 28.8053 154.1 28.9805 153.127 28.9805C152.155 28.9805 151.253 28.8053 150.423 28.4548C149.606 28.1043 148.893 27.6175 148.283 26.9944C147.674 26.3584 147.2 25.6185 146.863 24.7747C146.526 23.9179 146.358 22.9898 146.358 21.9903Z" fill="#2E2E2E"/>
<path d="M162.877 15.1752H163.947V24.4047C163.947 25.4951 164.232 26.3649 164.803 27.0139C165.373 27.663 166.184 27.9875 167.234 27.9875C168.285 27.9875 169.095 27.663 169.666 27.0139C170.237 26.3649 170.522 25.4951 170.522 24.4047V15.1752H171.592V24.4047C171.592 25.0797 171.495 25.7028 171.3 26.274C171.105 26.8322 170.82 27.3125 170.444 27.7149C170.068 28.1173 169.608 28.4353 169.063 28.669C168.531 28.8897 167.922 29 167.234 29C166.547 29 165.931 28.8897 165.386 28.669C164.854 28.4353 164.401 28.1173 164.024 27.7149C163.648 27.3125 163.363 26.8322 163.169 26.274C162.974 25.7028 162.877 25.0797 162.877 24.4047V15.1752Z" fill="#2E2E2E"/>
<path d="M175.355 15.1752H176.425V28.8053H175.355V15.1752ZM175.958 16.1878V15.1752H178.545C179.401 15.1752 180.16 15.3375 180.821 15.662C181.496 15.9866 182.027 16.4474 182.416 17.0445C182.805 17.6416 183 18.3621 183 19.2058C183 20.0366 182.805 20.7571 182.416 21.3672C182.027 21.9773 181.496 22.4446 180.821 22.7691C180.16 23.0807 179.401 23.2364 178.545 23.2364H175.958V22.2239H178.545C179.544 22.2239 180.354 21.9643 180.977 21.4451C181.599 20.9258 181.911 20.1794 181.911 19.2058C181.911 18.2193 181.599 17.4729 180.977 16.9666C180.354 16.4474 179.544 16.1878 178.545 16.1878H175.958Z" fill="#2E2E2E"/>
<path d="M127.139 23.0223V22.0097H133.189C133.189 22.9314 133.047 23.8141 132.761 24.6579C132.476 25.4886 132.054 26.2286 131.497 26.8776C130.939 27.5267 130.265 28.0394 129.474 28.4159C128.683 28.7923 127.788 28.9805 126.789 28.9805C125.816 28.9805 124.915 28.8118 124.085 28.4743C123.268 28.1238 122.548 27.637 121.926 27.0139C121.316 26.3908 120.843 25.6509 120.506 24.7942C120.169 23.9374 120 23.0028 120 21.9903C120 20.9777 120.169 20.0431 120.506 19.1864C120.843 18.3296 121.316 17.5897 121.926 16.9666C122.548 16.3435 123.268 15.8632 124.085 15.5257C124.915 15.1752 125.816 15 126.789 15C127.632 15 128.397 15.1168 129.085 15.3505C129.785 15.5841 130.407 15.9217 130.952 16.363C131.497 16.7914 131.964 17.3106 132.353 17.9207L131.575 18.6022C131.121 17.8493 130.485 17.2392 129.668 16.7719C128.851 16.3046 127.892 16.0709 126.789 16.0709C125.726 16.0709 124.766 16.3241 123.91 16.8303C123.054 17.3366 122.373 18.0311 121.868 18.9138C121.375 19.7965 121.128 20.822 121.128 21.9903C121.128 23.1456 121.375 24.1711 121.868 25.0668C122.373 25.9495 123.048 26.6439 123.891 27.1502C124.747 27.6565 125.713 27.9096 126.789 27.9096C127.554 27.9096 128.242 27.7798 128.851 27.5202C129.461 27.2605 129.986 26.9036 130.427 26.4492C130.881 25.9949 131.244 25.4757 131.516 24.8915C131.789 24.3074 131.957 23.6843 132.022 23.0223H127.139Z" stroke="#2E2E2E" stroke-width="0.6" mask="url(#path-4-outside-1_37_22)"/>
<path d="M138.684 22.3018H139.871L144.52 28.8053H143.198L138.684 22.3018ZM136.37 15.1752H137.439V28.8053H136.37V15.1752ZM136.934 16.1293V15.1752H139.482C140.364 15.1752 141.149 15.331 141.836 15.6426C142.536 15.9541 143.087 16.4019 143.489 16.9861C143.891 17.5702 144.092 18.2842 144.092 19.128C144.092 19.9587 143.891 20.6727 143.489 21.2698C143.087 21.8669 142.536 22.3213 141.836 22.6328C141.149 22.9314 140.364 23.0807 139.482 23.0807H136.934V22.1266H139.482C140.169 22.1266 140.779 22.0162 141.311 21.7955C141.855 21.5619 142.277 21.2244 142.575 20.783C142.873 20.3287 143.023 19.777 143.023 19.128C143.023 18.4789 142.867 17.9337 142.556 17.4924C142.257 17.051 141.842 16.7135 141.311 16.4798C140.779 16.2462 140.169 16.1293 139.482 16.1293H136.934Z" stroke="#2E2E2E" stroke-width="0.6" mask="url(#path-4-outside-1_37_22)"/>
<path d="M147.486 21.9903C147.486 23.1196 147.726 24.1321 148.206 25.0278C148.698 25.9235 149.366 26.631 150.209 27.1502C151.065 27.6565 152.038 27.9096 153.127 27.9096C154.217 27.9096 155.183 27.6565 156.026 27.1502C156.882 26.631 157.55 25.9235 158.029 25.0278C158.509 24.1321 158.749 23.1196 158.749 21.9903C158.749 20.8479 158.509 19.8354 158.029 18.9527C157.55 18.057 156.882 17.3561 156.026 16.8498C155.183 16.3306 154.217 16.0709 153.127 16.0709C152.038 16.0709 151.065 16.3306 150.209 16.8498C149.366 17.3561 148.698 18.057 148.206 18.9527C147.726 19.8354 147.486 20.8479 147.486 21.9903ZM146.358 21.9903C146.358 20.9907 146.526 20.0691 146.863 19.2253C147.2 18.3686 147.674 17.6287 148.283 17.0056C148.893 16.3695 149.606 15.8762 150.423 15.5257C151.253 15.1752 152.155 15 153.127 15C154.1 15 154.995 15.1752 155.812 15.5257C156.642 15.8762 157.362 16.3695 157.971 17.0056C158.581 17.6287 159.054 18.3686 159.391 19.2253C159.728 20.0691 159.897 20.9907 159.897 21.9903C159.897 22.9898 159.728 23.9179 159.391 24.7747C159.054 25.6185 158.581 26.3584 157.971 26.9944C157.362 27.6175 156.642 28.1043 155.812 28.4548C154.995 28.8053 154.1 28.9805 153.127 28.9805C152.155 28.9805 151.253 28.8053 150.423 28.4548C149.606 28.1043 148.893 27.6175 148.283 26.9944C147.674 26.3584 147.2 25.6185 146.863 24.7747C146.526 23.9179 146.358 22.9898 146.358 21.9903Z" stroke="#2E2E2E" stroke-width="0.6" mask="url(#path-4-outside-1_37_22)"/>
<path d="M162.877 15.1752H163.947V24.4047C163.947 25.4951 164.232 26.3649 164.803 27.0139C165.373 27.663 166.184 27.9875 167.234 27.9875C168.285 27.9875 169.095 27.663 169.666 27.0139C170.237 26.3649 170.522 25.4951 170.522 24.4047V15.1752H171.592V24.4047C171.592 25.0797 171.495 25.7028 171.3 26.274C171.105 26.8322 170.82 27.3125 170.444 27.7149C170.068 28.1173 169.608 28.4353 169.063 28.669C168.531 28.8897 167.922 29 167.234 29C166.547 29 165.931 28.8897 165.386 28.669C164.854 28.4353 164.401 28.1173 164.024 27.7149C163.648 27.3125 163.363 26.8322 163.169 26.274C162.974 25.7028 162.877 25.0797 162.877 24.4047V15.1752Z" stroke="#2E2E2E" stroke-width="0.6" mask="url(#path-4-outside-1_37_22)"/>
<path d="M175.355 15.1752H176.425V28.8053H175.355V15.1752ZM175.958 16.1878V15.1752H178.545C179.401 15.1752 180.16 15.3375 180.821 15.662C181.496 15.9866 182.027 16.4474 182.416 17.0445C182.805 17.6416 183 18.3621 183 19.2058C183 20.0366 182.805 20.7571 182.416 21.3672C182.027 21.9773 181.496 22.4446 180.821 22.7691C180.16 23.0807 179.401 23.2364 178.545 23.2364H175.958V22.2239H178.545C179.544 22.2239 180.354 21.9643 180.977 21.4451C181.599 20.9258 181.911 20.1794 181.911 19.2058C181.911 18.2193 181.599 17.4729 180.977 16.9666C180.354 16.4474 179.544 16.1878 178.545 16.1878H175.958Z" stroke="#2E2E2E" stroke-width="0.6" mask="url(#path-4-outside-1_37_22)"/>
<defs>
<linearGradient id="paint0_linear_37_22" x1="19.6047" y1="17.4043" x2="11.6575" y2="18.2351" gradientUnits="userSpaceOnUse">
<stop stop-color="#B8A17F"/>
<stop offset="1" stop-color="#D1BD9F"/>
</linearGradient>
<linearGradient id="paint1_linear_37_22" x1="19.6047" y1="17.4043" x2="11.6575" y2="18.2351" gradientUnits="userSpaceOnUse">
<stop stop-color="#B8A17F"/>
<stop offset="1" stop-color="#D1BD9F"/>
</linearGradient>
<linearGradient id="paint2_linear_37_22" x1="19.6047" y1="17.4043" x2="11.6575" y2="18.2351" gradientUnits="userSpaceOnUse">
<stop stop-color="#B8A17F"/>
<stop offset="1" stop-color="#D1BD9F"/>
</linearGradient>
<linearGradient id="paint3_linear_37_22" x1="19.6047" y1="17.4043" x2="11.6575" y2="18.2351" gradientUnits="userSpaceOnUse">
<stop stop-color="#B8A17F"/>
<stop offset="1" stop-color="#D1BD9F"/>
</linearGradient>
<linearGradient id="paint4_linear_37_22" x1="111.659" y1="14.6667" x2="47.8898" y2="48.5945" gradientUnits="userSpaceOnUse">
<stop stop-color="#B8A17F"/>
<stop offset="1" stop-color="#D1BD9F"/>
</linearGradient>
<linearGradient id="paint5_linear_37_22" x1="111.659" y1="14.6667" x2="47.8898" y2="48.5945" gradientUnits="userSpaceOnUse">
<stop stop-color="#B8A17F"/>
<stop offset="1" stop-color="#D1BD9F"/>
</linearGradient>
<linearGradient id="paint6_linear_37_22" x1="111.659" y1="14.6667" x2="47.8898" y2="48.5945" gradientUnits="userSpaceOnUse">
<stop stop-color="#B8A17F"/>
<stop offset="1" stop-color="#D1BD9F"/>
</linearGradient>
<linearGradient id="paint7_linear_37_22" x1="111.659" y1="14.6667" x2="47.8898" y2="48.5945" gradientUnits="userSpaceOnUse">
<stop stop-color="#B8A17F"/>
<stop offset="1" stop-color="#D1BD9F"/>
</linearGradient>
<linearGradient id="paint8_linear_37_22" x1="111.659" y1="14.6667" x2="47.8898" y2="48.5945" gradientUnits="userSpaceOnUse">
<stop stop-color="#B8A17F"/>
<stop offset="1" stop-color="#D1BD9F"/>
</linearGradient>
</defs>
</svg>
